<svg width="673.602" height="150.001" viewBox="0 0 673.602 150.001" xmlns="http://www.w3.org/2000/svg"><g id="svgGroup" stroke-linecap="round" fill-rule="evenodd" font-size="9pt" stroke="#000000" stroke-width="0.25mm" fill="#000000" style="stroke:#000000;stroke-width:0.25mm;fill:#000000"><path d="M 84.001 147 L 7.201 147 Q 0.001 147 0.001 139.8 L 0.001 10.2 Q 0.001 3 7.201 3 L 71.001 3 Q 90.601 3 100.001 10.4 Q 109.401 17.8 109.401 33.6 L 109.401 43.2 Q 109.401 59.8 97.601 64.8 Q 110.601 66 116.701 73.5 Q 122.801 81 122.801 95.8 L 122.801 114.2 Q 122.801 131 113.401 139 Q 104.001 147 84.001 147 Z M 71.001 89.4 Q 78.601 89.4 78.601 97.2 L 78.601 105 Q 78.601 113 71.001 113 L 45.001 113 L 45.001 89.4 L 71.001 89.4 Z M 62.001 37 Q 69.601 37 69.601 45 L 69.601 50.6 Q 69.601 58.6 62.001 58.6 L 45.001 58.6 L 45.001 37 L 62.001 37 Z" id="0" vector-effect="non-scaling-stroke"/><path d="M 234.201 147 L 149.001 147 Q 141.801 147 141.801 139.8 L 141.801 116 Q 141.801 108.8 149.001 108.8 L 168.801 108.8 L 168.801 41.6 L 149.001 41.6 Q 141.801 41.6 141.801 34.4 L 141.801 10.2 Q 141.801 3 149.001 3 L 234.201 3 Q 241.401 3 241.401 10.2 L 241.401 34.4 Q 241.401 41.6 234.201 41.6 L 214.801 41.6 L 214.801 108.8 L 234.201 108.8 Q 241.401 108.8 241.401 116 L 241.401 139.8 Q 241.401 147 234.201 147 Z" id="1" vector-effect="non-scaling-stroke"/><path d="M 377.001 10.2 L 377.001 109.2 Q 377.001 121.4 372.101 130.6 Q 367.201 139.8 354.601 144.9 Q 342.001 150 318.401 150 Q 295.201 150 282.601 144.9 Q 270.001 139.8 265.201 130.6 Q 260.401 121.4 260.401 109.2 L 260.401 76.8 Q 260.401 69.6 267.601 69.6 L 296.601 69.6 Q 303.801 69.6 303.801 76.8 L 303.801 101.2 Q 303.801 105.2 306.301 107.9 Q 308.801 110.6 318.001 110.6 Q 326.801 110.6 329.001 107.9 Q 331.201 105.2 331.201 101.2 L 331.201 10.2 Q 331.201 3 338.401 3 L 369.801 3 Q 377.001 3 377.001 10.2 Z" id="2" vector-effect="non-scaling-stroke"/><path d="M 525.601 41 L 525.601 109.2 Q 525.601 118.4 522.901 125.9 Q 520.201 133.4 513.401 138.8 Q 506.601 144.2 494.501 147.1 Q 482.401 150 463.601 150 Q 444.801 150 432.701 147.1 Q 420.601 144.2 413.801 138.8 Q 407.001 133.4 404.201 125.9 Q 401.401 118.4 401.401 109.2 L 401.401 41 Q 401.401 31.8 404.201 24.3 Q 407.001 16.8 413.801 11.4 Q 420.601 6 432.701 3 Q 444.801 0 463.601 0 Q 482.401 0 494.501 3 Q 506.601 6 513.401 11.4 Q 520.201 16.8 522.901 24.3 Q 525.601 31.8 525.601 41 Z M 446.801 48.2 Q 446.801 44.2 449.801 41.6 Q 452.801 39 463.601 39 Q 474.601 39 477.501 41.6 Q 480.401 44.2 480.401 48.2 L 480.401 102 Q 480.401 106 477.501 108.7 Q 474.601 111.4 463.601 111.4 Q 452.801 111.4 449.801 108.7 Q 446.801 106 446.801 102 L 446.801 48.2 Z" id="3" vector-effect="non-scaling-stroke"/><path d="M 673.601 10.2 L 673.601 109.2 Q 673.601 118.4 670.901 125.9 Q 668.201 133.4 661.301 138.8 Q 654.401 144.2 642.401 147.1 Q 630.401 150 611.801 150 Q 593.201 150 581.201 147.1 Q 569.201 144.2 562.301 138.8 Q 555.401 133.4 552.701 125.9 Q 550.001 118.4 550.001 109.2 L 550.001 10.2 Q 550.001 3 557.201 3 L 588.601 3 Q 595.801 3 595.801 10.2 L 595.801 101.4 Q 595.801 105.4 598.801 108.1 Q 601.801 110.8 612.201 110.8 Q 622.801 110.8 625.801 108.1 Q 628.801 105.4 628.801 101.4 L 628.801 10.2 Q 628.801 3 636.001 3 L 666.401 3 Q 673.601 3 673.601 10.2 Z" id="4" vector-effect="non-scaling-stroke"/></g></svg>